{"title":"The Avengers","uid":9189779,"size":4683554832,"categoryP":"video","categoryS":"movies_dvdr","magnet":"?xt=urn:btih:44dc31cbb1f0f0bb85406b4e4abd46f36b806265&amp;dn=The+Avengers&amp;tr=udp%3A%2F%2Ftracker.openbittorrent.com%3A80&amp;tr=udp%3A%2F%2Fopen.demonii.com%3A1337&amp;tr=udp%3A%2F%2Ftracker.coppersurfer.tk%3A6969&amp;tr=udp%3A%2F%2Fexodus.desync.com%3A6969","seeders":2,"leechers":1,"uploader":"palez1958","files":22,"time":1384366647,"description":"General\nFormat                                   : MPEG-PS\nOverall bit rate mode                    : Variable\nOverall bit rate                         : 4 501 Kbps\n\nVideo\nID                                       : 224 (0xE0)\nFormat                                   : MPEG Video\nFormat version                           : Version 2\nFormat profile                           : Main@Main\nFormat settings, BVOP                    : Yes\nFormat settings, Matrix                  : Custom\nBit rate mode                            : Variable\nBit rate                                 : 4 027 Kbps\nMaximum bit rate                         : 7 923 Kbps\nWidth                                    : 720 pixels\nHeight                                   : 576 pixels\nDisplay aspect ratio                     : 16:9\nFrame rate                               : 25.000 fps\nStandard                                 : PAL\nColor space                              : YUV\nChroma subsampling                       : 4:2:0\nBit depth                                : 8 bits\nScan type                                : Progressive\nScan order                               : Top Field First\nCompression mode                         : Lossy\nBits/(Pixel*Frame)                       : 0.388\nStream size                              : 916 MiB (89%)\n\nAudio\nID                                       : 189 (0xBD)-130 (0x82)\nFormat                                   : AC-3\nFormat/Info                              : Audio Coding 3\nMode extension                           : CM (complete main)\nFormat settings, Endianness              : Big\nMuxing mode                              : DVD-Video\nBit rate mode                            : Constant\nBit rate                                 : 384 Kbps\nChannel(s)                               : 6 channels\nChannel positions                        : Front: L C R, Side: L R, LFE\nSampling rate                            : 48.0 KHz\nBit depth                                : 16 bits\nCompression mode                         : Lossy\nStream size                              : 87.4 MiB (9%)","torrent":{"xt":"urn:btih:44dc31cbb1f0f0bb85406b4e4abd46f36b806265","amp;dn":"The+Avengers","amp;tr":["udp%3A%2F%2Ftracker.openbittorrent.com%3A80","udp%3A%2F%2Fopen.demonii.com%3A1337","udp%3A%2F%2Ftracker.coppersurfer.tk%3A6969","udp%3A%2F%2Fexodus.desync.com%3A6969"],"infoHash":"44dc31cbb1f0f0bb85406b4e4abd46f36b806265","infoHashBuffer":{"type":"Buffer","data":[68,220,49,203,177,240,240,187,133,64,107,78,74,189,70,243,107,128,98,101]},"announce":[],"urlList":[]}}